<svg width="400" height="400" viewBox="0 0 400 400" fill="none" xmlns="http://www.w3.org/2000/svg">
<circle cx="200" cy="200" r="200" fill="#5684C2"/>
<path d="M376.305 54.0859V66.3203H306.133V54.0859H376.305ZM347.758 24.2031V98.7344H334.75V24.2031H347.758Z" fill="white"/>
<path d="M376.305 54.0859H379.305V51.0859H376.305V54.0859ZM376.305 66.3203V69.3203H379.305V66.3203H376.305ZM306.133 66.3203H303.133V69.3203H306.133V66.3203ZM306.133 54.0859V51.0859H303.133V54.0859H306.133ZM347.758 24.2031H350.758V21.2031H347.758V24.2031ZM347.758 98.7344V101.734H350.758V98.7344H347.758ZM334.75 98.7344H331.75V101.734H334.75V98.7344ZM334.75 24.2031V21.2031H331.75V24.2031H334.75ZM373.305 54.0859V66.3203H379.305V54.0859H373.305ZM376.305 63.3203H306.133V69.3203H376.305V63.3203ZM309.133 66.3203V54.0859H303.133V66.3203H309.133ZM306.133 57.0859H376.305V51.0859H306.133V57.0859ZM344.758 24.2031V98.7344H350.758V24.2031H344.758ZM347.758 95.7344H334.75V101.734H347.758V95.7344ZM337.75 98.7344V24.2031H331.75V98.7344H337.75ZM334.75 27.2031H347.758V21.2031H334.75V27.2031Z" fill="#5684C2"/>
<path d="M309.854 109C310.01 112.122 310.062 115.243 309.906 118.365C308.865 118.677 307.825 118.885 306.732 119.041C303.61 119.562 300.489 120.342 297.471 121.226C296.639 121.487 295.806 121.799 294.974 122.111C290.968 123.672 287.43 126.273 284.725 129.603C282.852 131.944 281.239 134.493 279.834 137.147C277.857 140.789 276.14 144.587 274.579 148.437C271.458 156.241 268.336 163.993 265.266 171.797C254.653 198.643 244.039 225.489 233.426 252.335C223.385 277.88 213.499 303.425 203.822 329.127C203.614 329.647 203.406 330.167 203.198 330.688C199.608 331.676 196.122 332.717 192.48 333.705C192.272 333.185 192.064 332.717 191.908 332.249C187.798 320.803 183.688 309.357 179.63 297.859C165.634 258.786 151.639 219.766 137.28 180.849C133.326 170.236 129.372 159.57 125.365 148.957C123.805 144.639 121.932 140.372 119.799 136.314C118.862 134.545 117.874 132.88 116.781 131.216C113.451 126.013 108.301 122.319 102.317 120.758C99.0917 119.926 95.8661 119.249 92.5363 118.833L90.1951 118.469C89.8829 117.428 90.039 116.44 90.039 115.451C90.039 114.463 90.039 113.318 90.039 112.278C89.987 111.237 90.039 110.249 90.091 109.208C90.4032 109.156 90.6633 109.104 90.9755 109.052C91.3397 109.052 91.7039 109.052 92.0681 109.052H173.282C173.387 109.208 173.439 109.416 173.491 109.624C173.491 112.434 173.491 115.243 173.491 118.053C173.491 118.157 173.439 118.313 173.387 118.417C172.71 118.625 172.034 118.729 171.305 118.833C167.924 119.301 164.594 119.926 161.264 120.81C159.964 121.174 158.611 121.643 157.362 122.163C156.738 122.423 156.113 122.735 155.489 123.099C152.211 124.92 150.911 127.782 151.223 131.424C151.379 133.089 151.639 134.701 152.107 136.314C152.784 138.812 153.668 141.257 154.501 143.65C171.566 191.255 188.422 238.912 205.123 286.673C205.279 287.193 205.383 287.765 205.903 288.234C206.06 288.129 206.32 288.025 206.424 287.921C206.58 287.661 206.684 287.401 206.736 287.141C214.904 263.677 223.593 240.369 232.229 217.112C238.629 199.891 245.028 182.618 250.959 165.241C253.352 158.27 255.641 151.246 257.879 144.222C258.763 141.517 259.387 138.76 259.804 136.002C260.116 134.129 260.168 132.256 259.96 130.331C259.7 127.886 258.399 125.649 256.37 124.192C255.069 123.255 253.612 122.527 252.052 122.007C249.606 121.122 247.109 120.498 244.56 120.082C241.75 119.561 238.941 119.145 236.079 118.729C235.871 118.677 235.715 118.677 235.455 118.625C235.403 118.417 235.351 118.209 235.299 118.001C235.299 115.295 235.299 112.538 235.299 109.832C235.299 109.676 235.351 109.52 235.403 109.364C235.663 109.312 235.923 109.26 236.183 109.26C236.547 109.26 236.912 109.26 237.276 109.26L309.854 109Z" fill="white"/>
</svg>
