<svg width="406" height="406" viewBox="0 0 406 406" fill="none" xmlns="http://www.w3.org/2000/svg">
<circle cx="203" cy="203" r="201.5" fill="#5684C2" stroke="white" stroke-width="3"/>
<path d="M379.305 57.0859V69.3203H309.133V57.0859H379.305ZM350.758 27.2031V101.734H337.75V27.2031H350.758Z" fill="white"/>
<path d="M379.305 57.0859H382.305V54.0859H379.305V57.0859ZM379.305 69.3203V72.3203H382.305V69.3203H379.305ZM309.133 69.3203H306.133V72.3203H309.133V69.3203ZM309.133 57.0859V54.0859H306.133V57.0859H309.133ZM350.758 27.2031H353.758V24.2031H350.758V27.2031ZM350.758 101.734V104.734H353.758V101.734H350.758ZM337.75 101.734H334.75V104.734H337.75V101.734ZM337.75 27.2031V24.2031H334.75V27.2031H337.75ZM376.305 57.0859V69.3203H382.305V57.0859H376.305ZM379.305 66.3203H309.133V72.3203H379.305V66.3203ZM312.133 69.3203V57.0859H306.133V69.3203H312.133ZM309.133 60.0859H379.305V54.0859H309.133V60.0859ZM347.758 27.2031V101.734H353.758V27.2031H347.758ZM350.758 98.7344H337.75V104.734H350.758V98.7344ZM340.75 101.734V27.2031H334.75V101.734H340.75ZM337.75 30.2031H350.758V24.2031H337.75V30.2031Z" fill="#5684C2"/>
<path d="M312.854 112C313.01 115.122 313.062 118.243 312.906 121.365C311.865 121.677 310.825 121.885 309.732 122.041C306.61 122.562 303.489 123.342 300.471 124.226C299.639 124.487 298.806 124.799 297.974 125.111C293.968 126.672 290.43 129.273 287.725 132.603C285.852 134.944 284.239 137.493 282.834 140.147C280.857 143.789 279.14 147.587 277.579 151.437C274.458 159.241 271.336 166.993 268.266 174.797C257.653 201.643 247.039 228.489 236.426 255.335C226.385 280.88 216.499 306.425 206.822 332.127C206.614 332.647 206.406 333.167 206.198 333.688C202.608 334.676 199.122 335.717 195.48 336.705C195.272 336.185 195.064 335.717 194.908 335.249C190.798 323.803 186.688 312.357 182.63 300.859C168.634 261.786 154.639 222.766 140.28 183.849C136.326 173.236 132.372 162.57 128.365 151.957C126.805 147.639 124.932 143.372 122.799 139.314C121.862 137.545 120.874 135.88 119.781 134.216C116.451 129.013 111.301 125.319 105.317 123.758C102.092 122.926 98.8661 122.249 95.5363 121.833L93.1951 121.469C92.8829 120.428 93.039 119.44 93.039 118.451C93.039 117.463 93.039 116.318 93.039 115.278C92.987 114.237 93.039 113.249 93.091 112.208C93.4032 112.156 93.6633 112.104 93.9755 112.052C94.3397 112.052 94.7039 112.052 95.0681 112.052H176.282C176.387 112.208 176.439 112.416 176.491 112.624C176.491 115.434 176.491 118.243 176.491 121.053C176.491 121.157 176.439 121.313 176.387 121.417C175.71 121.625 175.034 121.729 174.305 121.833C170.924 122.301 167.594 122.926 164.264 123.81C162.964 124.174 161.611 124.643 160.362 125.163C159.738 125.423 159.113 125.735 158.489 126.099C155.211 127.92 153.911 130.782 154.223 134.424C154.379 136.089 154.639 137.701 155.107 139.314C155.784 141.812 156.668 144.257 157.501 146.65C174.566 194.255 191.422 241.912 208.123 289.673C208.279 290.193 208.383 290.765 208.903 291.234C209.06 291.129 209.32 291.025 209.424 290.921C209.58 290.661 209.684 290.401 209.736 290.141C217.904 266.677 226.593 243.369 235.229 220.112C241.629 202.891 248.028 185.618 253.959 168.241C256.352 161.27 258.641 154.246 260.879 147.222C261.763 144.517 262.387 141.76 262.804 139.002C263.116 137.129 263.168 135.256 262.96 133.331C262.7 130.886 261.399 128.649 259.37 127.192C258.069 126.255 256.612 125.527 255.052 125.007C252.606 124.122 250.109 123.498 247.56 123.082C244.75 122.561 241.941 122.145 239.079 121.729C238.871 121.677 238.715 121.677 238.455 121.625C238.403 121.417 238.351 121.209 238.299 121.001C238.299 118.295 238.299 115.538 238.299 112.832C238.299 112.676 238.351 112.52 238.403 112.364C238.663 112.312 238.923 112.26 239.183 112.26C239.547 112.26 239.912 112.26 240.276 112.26L312.854 112Z" fill="white"/>
</svg>
